<svg width="1440" height="839" viewBox="0 0 1440 839" fill="none" xmlns="http://www.w3.org/2000/svg">
<mask id="mask0_94_299" style="mask-type:alpha" maskUnits="userSpaceOnUse" x="0" y="0" width="1440" height="839">
<rect width="1440" height="839" fill="#394047"/>
<rect width="1440" height="839" fill="url(#paint0_linear_94_299)" fill-opacity="0.548"/>
</mask>
<g mask="url(#mask0_94_299)">
<rect width="1440" height="839" fill="#040613"/>
<rect width="1440" height="839" fill="url(#paint1_linear_94_299)" fill-opacity="0.276"/>
<g clip-path="url(#clip0_94_299)">
<path fill-rule="evenodd" clip-rule="evenodd" d="M1015.24 -100.388C1042.18 -95.578 1069.51 -90.6975 1098.68 -81.3918C1099.21 -81.2161 1099.79 -81.028 1100.41 -80.8271C1141.8 -67.362 1359.05 3.32202 1424.04 260.236C1490.01 520.982 1327.49 745.289 1089.91 805.393C852.33 865.496 591.103 732.693 526.886 478.854C462.669 225.015 631.176 56.7491 662.939 28.8425C672.145 20.3139 680.838 12.6899 689.307 5.26083C715.215 -17.4633 739.043 -38.3635 769.168 -77.7522C787.778 -103.39 801.635 -136.173 791.321 -205.818C837.547 -172.361 892.399 -133.913 928.189 -120.98C957.936 -110.621 986.362 -105.545 1015.24 -100.388ZM759.917 583.104C741.568 506.38 795.317 416.354 885.742 392.126C952.862 374.528 1017.9 399.496 1071.95 420.245C1110.57 435.07 1143.58 447.741 1167.73 441.191C1192.43 434.408 1222.54 400.478 1252.25 366.983C1281.51 334.007 1310.39 301.452 1333.38 295.636C1382.66 283.17 1409.39 330.848 1417.1 361.348C1424.82 391.849 1428.9 449.431 1414.25 489.765C1399.59 530.1 1387.44 546.813 1359.64 551.729C1342.82 554.538 1312.49 536.158 1280.24 516.611C1243.03 494.063 1203.27 469.961 1178.71 475.041C1153.14 480.575 1120.65 513.29 1083.93 550.255C1037.39 597.113 984.06 650.801 929.463 664.613C870.331 679.573 850.364 675.159 827.368 667.396C792.575 654.21 769.879 626.441 759.875 582.938L759.917 583.104ZM1219.69 547.391C1205.96 542.459 1188.93 545.709 1173.15 549.701L1173.2 549.687C1171.37 550.151 1169.62 550.578 1167.95 550.988C1155.21 554.105 1146.52 556.234 1133.28 566.076C1118.6 577.002 1105.26 596.637 1096.65 609.309L1096.16 610.037C1087.57 622.674 1087.75 631.273 1095.6 637.399C1103.41 643.497 1108.09 637.169 1121.24 619.36L1121.43 619.107C1122.58 617.54 1123.7 615.999 1124.8 614.485L1124.8 614.478L1124.8 614.477C1136.3 598.607 1145.59 585.773 1177.08 577.808C1210.82 569.273 1220.21 579.665 1230.16 590.689L1230.53 591.099L1230.83 591.429L1230.93 591.541C1241.06 602.729 1242.56 604.381 1248.41 598.74C1250.18 597.628 1251.68 596.142 1252.81 594.387C1253.94 592.632 1254.68 590.652 1254.96 588.585C1255.24 586.518 1255.06 584.415 1254.44 582.425C1253.81 580.434 1252.76 578.605 1251.35 577.067L1251.27 576.958C1244.84 568.096 1233.37 552.303 1219.69 547.391ZM1157.48 703.404C1094.36 719.372 1061.55 714.033 1037.86 703.272L1038 703.119C1037.51 702.948 1037.11 702.797 1036.76 702.667L1036.76 702.665C1034.72 701.891 1034.72 701.891 1029.65 703.174C1024.14 704.991 1019.5 708.76 1016.6 713.766C1015.51 715.448 1014.79 717.334 1014.46 719.307C1014.14 721.28 1014.23 723.298 1014.72 725.235C1015.21 727.173 1016.09 728.989 1017.31 730.571C1018.54 732.153 1020.07 733.466 1021.82 734.431C1075.14 762.86 1146.37 741.667 1198.38 723.275C1234.82 709.369 1266.92 686.075 1291.41 655.766C1293.18 653.163 1294.11 650.082 1294.07 646.938C1294.03 643.794 1293.03 640.738 1291.2 638.181C1289.2 634.455 1283.73 629.606 1276.61 638.699C1260.46 658.48 1220.6 687.436 1157.48 703.404Z" fill="url(#paint2_linear_94_299)" fill-opacity="0.192"/>
</g>
</g>
<defs>
<linearGradient id="paint0_linear_94_299" x1="3277.5" y1="-272.352" x2="421.288" y2="486.68" gradientUnits="userSpaceOnUse">
<stop stop-color="white"/>
<stop offset="1" stop-color="white" stop-opacity="0"/>
</linearGradient>
<linearGradient id="paint1_linear_94_299" x1="3277.5" y1="-272.352" x2="421.288" y2="486.68" gradientUnits="userSpaceOnUse">
<stop stop-color="white"/>
<stop offset="1" stop-color="white" stop-opacity="0"/>
</linearGradient>
<linearGradient id="paint2_linear_94_299" x1="2458.24" y1="-1263.97" x2="424.182" y2="-375.764" gradientUnits="userSpaceOnUse">
<stop/>
<stop offset="1" stop-color="white" stop-opacity="0"/>
</linearGradient>
<clipPath id="clip0_94_299">
<rect width="923.603" height="1053.56" fill="white" transform="translate(380 -101.76) rotate(-14.197)"/>
</clipPath>
</defs>
</svg>
