<svg width="24" height="18" viewBox="0 0 24 18" fill="none" xmlns="http://www.w3.org/2000/svg">
<path d="M1.49998 0H22.5C22.8094 0 23.1061 0.105357 23.3249 0.292893C23.5437 0.48043 23.6666 0.734784 23.6666 1V17C23.6666 17.2652 23.5437 17.5196 23.3249 17.7071C23.1061 17.8946 22.8094 18 22.5 18H1.49998C1.19056 18 0.893814 17.8946 0.675022 17.7071C0.456229 17.5196 0.333313 17.2652 0.333313 17V1C0.333313 0.734784 0.456229 0.48043 0.675022 0.292893C0.893814 0.105357 1.19056 0 1.49998 0ZM21.3333 4.238L12.084 11.338L2.66665 4.216V16H21.3333V4.238ZM3.26281 2L12.0711 8.662L20.7523 2H3.26281Z" fill="white"/>
</svg>
